<?xml version="1.0" standalone="no"?><!DOCTYPE svg PUBLIC "-//W3C//DTD SVG 1.1//EN" "http://www.w3.org/Graphics/SVG/1.1/DTD/svg11.dtd"><svg t="1625638283068" class="icon" viewBox="0 0 1024 1024" version="1.1" xmlns="http://www.w3.org/2000/svg" p-id="6877" xmlns:xlink="http://www.w3.org/1999/xlink" width="220" height="220"><defs><style type="text/css"></style></defs><path d="M512 23.948435c-269.543969 0-488.051565 218.507596-488.051565 488.051565s218.507596 488.051565 488.051565 488.051565 488.051565-218.507596 488.051565-488.051565S781.543969 23.948435 512 23.948435zM288.420899 562.528813l25.216311-25.216311c9.05319-9.05319 17.58961-13.063527 25.607214-12.027941 8.018627 1.034563 14.741749 4.267187 20.174482 9.699919l26.768667 26.768667-72.551386 72.551386-23.664979-23.664979C273.418206 594.08553 272.90246 578.048275 288.420899 562.528813zM771.83177 498.903727c-7.500834 18.879999-18.879999 35.94977-34.139541 51.210335-11.897981 11.897981-25.025976 21.403472-39.380916 28.516474-14.356986 7.114025-29.226648 11.897981-44.61615 14.356986-15.389502 2.459005-30.90794 2.585895-46.557362 0.387833-15.647375-2.198062-30.714536-6.658653-45.198411-13.385868L398.992203 742.93565c-4.653997 4.653997-10.021238 8.340969-16.098653 11.056823-6.079462 2.715855-12.416797 4.267187-19.014052 4.653997-6.594185 0.387833-13.123902-0.452301-19.589151-2.521426-6.468318-2.070148-12.157901-5.560646-17.073864-10.475586-4.913916-4.913916-8.598842-10.79895-11.054777-17.653055-2.457981-6.855128-3.751441-13.837146-3.8814-20.949124-0.128937-7.113001 0.971118-13.902638 3.297093-20.369933 2.328022-6.466272 5.821589-12.026918 10.475586-16.680914l163.335019-163.335019c-6.725168-14.485923-11.124362-29.485545-13.192464-45.005007-2.068102-15.519462-1.871627-30.972409 0.581238-46.362934 2.456958-15.390525 7.308453-30.196743 14.549368-44.421722 7.240915-14.227026 16.681938-27.157523 28.323069-38.797631 15.259542-15.259542 32.329313-26.637684 51.210335-34.139541 18.883069-7.501858 38.216393-11.186783 58.003042-11.059893 19.786649 0.130983 39.120996 3.945869 58.002019 11.446703 18.879999 7.500834 35.82288 18.753109 50.821479 33.752732 15.002692 15.002692 26.254967 31.94455 33.755802 50.824549 7.501858 18.879999 11.31572 38.21537 11.446703 58.002019C783.018553 460.687334 779.332604 480.019635 771.83177 498.903727zM625.702622 385.205199c-14.482853 0-27.02961 5.302773-37.632085 15.906272-10.345626 10.345626-15.517415 22.760376-15.520485 37.245276 0 14.483876 5.175883 26.89965 15.519462 37.243229 10.605545 10.605545 23.150256 15.909341 37.633109 15.909341 14.484899-0.00307 26.89965-5.175883 37.245276-15.521508 10.602476-10.602476 15.906272-23.14821 15.906272-37.632085s-5.303796-27.02961-15.909341-37.634132C652.603295 390.380058 640.186498 385.205199 625.702622 385.205199z" p-id="6878"></path></svg>