<svg xmlns="http://www.w3.org/2000/svg" viewBox="0 0 211.18 80.05"><defs><style>.cls-1{fill:#1da953;}.cls-2{fill:#0b318f;}.cls-3{fill:#009a3e;}</style></defs><g id="图层_2" data-name="图层 2"><g id="纯字母版"><g id="纯字母版-2" data-name="纯字母版"><path class="cls-1" d="M35.3,16l34.57,7.2V10.55a4.11,4.11,0,0,0-3.28-4L59.73,5.08A1.85,1.85,0,0,0,57.5,6.89V10a1.85,1.85,0,0,1-2.23,1.82L45,9.68a1.86,1.86,0,0,1-1.48-1.81V3.21a1.85,1.85,0,0,0-1.47-1.82L35.78.09a4,4,0,0,0-1.68,0l-6.27,1.3a1.86,1.86,0,0,0-1.48,1.82V7.87a1.85,1.85,0,0,1-1.47,1.81L14.61,11.82A1.86,1.86,0,0,1,12.37,10V6.89a1.85,1.85,0,0,0-2.23-1.81L3.29,6.51a4.11,4.11,0,0,0-3.29,4V23.14L34.54,16A1.63,1.63,0,0,1,35.3,16Z"/><path class="cls-2" d="M36.09,17.4a5.72,5.72,0,0,0-2.33,0L0,24.43V52.61A14.94,14.94,0,0,0,7.06,65.34L27,77.79a15.13,15.13,0,0,0,15.91,0l5.52-3.45A27.11,27.11,0,0,1,31.89,71.2c-.2-.1-.4-.2-.59-.32L31,70.7c-.3-.19-.6-.37-.9-.57L11.38,58.42a6.81,6.81,0,0,1-3.23-5.81V31.06l26.77-5.58,26.8,5.59V52.61c0,2.84-2.73,5.76-2.73,5.76A43,43,0,0,1,38.44,71.51a33.29,33.29,0,0,0,3.33.17A32,32,0,0,0,69.61,55.45a15.79,15.79,0,0,0,.26-2.84V24.44Z"/><path class="cls-2" d="M41.76,47.14a6.58,6.58,0,0,0,2.51-5.42,5.94,5.94,0,0,0-3-5.26,10,10,0,0,0-4.4-.71H30.71v4.06h5.63a4.43,4.43,0,0,1,2.38.47,2.26,2.26,0,0,1,1,2,2.71,2.71,0,0,1-1.05,2.25,2.32,2.32,0,0,1-.91.44,7.76,7.76,0,0,1-1.52.1H30.71v4.06h5.63a4.42,4.42,0,0,1,2.38.48,2.23,2.23,0,0,1,1,2,2.71,2.71,0,0,1-1.05,2.26,2.19,2.19,0,0,1-.89.44,8.07,8.07,0,0,1-1.54.1H34.92a7,7,0,0,0,5,3.93A8.31,8.31,0,0,0,41.66,58,4.75,4.75,0,0,0,44,56.22a6.26,6.26,0,0,0,1.06-3.72A5.4,5.4,0,0,0,41.76,47.14Z"/><path class="cls-2" d="M33.5,54.44H29.65V35.75H27.27a2.47,2.47,0,0,0-2.47,2.46V56a2.47,2.47,0,0,0,2.47,2.46H38.89S35,57.72,33.5,54.44Z"/><path class="cls-2" d="M86.5,60.82V33.41A2.51,2.51,0,0,1,89,30.9h14.4a13.18,13.18,0,0,1,5.79.94,6.69,6.69,0,0,1,3.18,3.45,8.21,8.21,0,0,1-.47,7.81,6.49,6.49,0,0,1-3.12,2.78,7.1,7.1,0,0,1,4.36,7,8.35,8.35,0,0,1-1.39,4.89,6.23,6.23,0,0,1-3.1,2.35,18.09,18.09,0,0,1-5.61.65Zm6.37-17.63h8.66a10.34,10.34,0,0,0,2-.13,3,3,0,0,0,1.19-.59,3.53,3.53,0,0,0,1.39-3,2.94,2.94,0,0,0-1.3-2.65,6,6,0,0,0-3.14-.62H92.87Zm0,12.29h8.66a10.66,10.66,0,0,0,2-.13,2.8,2.8,0,0,0,1.17-.58,3.55,3.55,0,0,0,1.39-3,2.93,2.93,0,0,0-1.3-2.64,5.86,5.86,0,0,0-3.14-.63H92.87Z"/><path class="cls-2" d="M132.75,47.54c0-1.52-.3-2.56-.92-3.09s-1.83-.81-3.65-.81H118V39h10.14c1.82,0,3.08,0,3.77.11a12.64,12.64,0,0,1,2.1.43q5,1.89,4.71,9V60.82H126.11a35.39,35.39,0,0,1-4.71-.2,5.81,5.81,0,0,1-2.29-.83,6.13,6.13,0,0,1-2.64-5.43,7.4,7.4,0,0,1,1-3.92,5.34,5.34,0,0,1,2.8-2.36,16.81,16.81,0,0,1,5.07-.54Zm0,4.67h-7.94a2.38,2.38,0,0,0-1.64.54,1.89,1.89,0,0,0-.6,1.48,1.58,1.58,0,0,0,.74,1.48,5.17,5.17,0,0,0,2.53.45h6.91Z"/><path class="cls-2" d="M154.47,38.66q6.06,0,8.93,3.5a12.15,12.15,0,0,1,2.64,8,10.51,10.51,0,0,1-3.32,8.16q-3,2.79-8.34,2.79-5.48,0-8.57-3.14c-1.92-1.89-2.87-4.64-2.87-8.26a11,11,0,0,1,2.73-7.63Q148.73,38.71,154.47,38.66Zm0,4.57q-5.43,0-5.43,6.73a7.94,7.94,0,0,0,.9,4.18,5,5,0,0,0,4.58,2.42q5.34,0,5.34-6.68T154.51,43.23Z"/><path class="cls-3" d="M176.5,60.82h-6V30.9h6Z"/><path class="cls-3" d="M200.27,47.54v4.67H187.62a4,4,0,0,0,1.39,3,6.75,6.75,0,0,0,4,.9h7.31v4.66h-8a15.46,15.46,0,0,1-4.24-.47A9.27,9.27,0,0,1,185,58.8q-4-3.09-4-9.19a11.55,11.55,0,0,1,2.11-6.91,8,8,0,0,1,3.46-2.87,13.72,13.72,0,0,1,5.29-.86h8.43v4.67h-8a5.49,5.49,0,0,0-3.46.83,4.53,4.53,0,0,0-1.21,3.07Z"/><path class="cls-3" d="M205.16,36.73V30.9h6v5.83Zm0,2.24h6V58.31a2.51,2.51,0,0,1-2.51,2.51h-3.51Z"/></g></g></g></svg>